# xmcd
#
# Track frame offsets: 
#        150
#        15340
#        37314
#        50212
#        64788
#        83664
#        101902
#        116388
#
# Disc length: 2016 seconds
#
# Revision: 0
# Processed by: cddbd v1.5.2PL0 Copyright (c) Steve Scherf et al.
# Submitted via: ExactAudioCopy v1.1
#
DISCID=6707de08
DTITLE=Blues Lab - Blues Lab
DYEAR=2015
DGENRE=Blues
TTITLE0=Your Love (All I'm Missing)
TTITLE1=Take Me to The River
TTITLE2=Trying To Get To You
TTITLE3=If Loving Is Believing
TTITLE4=Shaky Taters
TTITLE5=Hijackin' Love
TTITLE6=99 Pounds
TTITLE7=Shout (Isley Brothers) - bonus live
EXTD=
EXTT0=
EXTT1=
EXTT2=
EXTT3=
EXTT4=
EXTT5=
EXTT6=
EXTT7=
PLAYORDER=
